<svg xmlns="http://www.w3.org/2000/svg" xmlns:xlink="http://www.w3.org/1999/xlink" width="1280" zoomAndPan="magnify" viewBox="0 0 960 479.999983" height="640" preserveAspectRatio="xMidYMid meet" version="1.0"><defs><g/></defs><rect x="-96" width="1152" fill="#ffffff" y="-47.999998" height="575.99998" fill-opacity="1"/><rect x="-96" width="1152" fill="#000000" y="-47.999998" height="575.99998" fill-opacity="1"/><path stroke-linecap="butt" transform="matrix(2.073442, 0, 0, 2.073442, 219.109131, 92.50133)" fill="none" stroke-linejoin="miter" d="M 3.954517 71.25955 C 2.479389 71.042896 1.740882 70.690599 1.740882 70.202657 C 1.740882 69.801377 2.098832 69.437776 2.814731 69.111854 C 3.530629 68.776511 4.355797 68.606956 5.288349 68.606956 L 6.281188 68.672895 C 6.237857 67.512385 6.183223 66.410277 6.119169 65.368456 C 6.053231 64.326635 5.998596 63.318725 5.955266 62.342842 C 5.900631 61.408405 5.853533 60.519184 5.810202 59.673293 C 5.764987 58.827402 5.721657 58.022958 5.678326 57.263728 L 5.548334 54.270141 L 5.077348 44.066699 C 5.034017 41.711768 4.768381 36.24833 4.280439 27.678267 L 4.214501 25.935619 L 3.221663 25.935619 C 1.616542 25.718965 0.813982 25.274355 0.813982 24.601786 C 0.813982 24.341802 1.036287 24.076166 1.480898 23.804878 C 1.882178 23.53359 2.462433 23.354615 3.221663 23.267954 L 10.544554 23.267954 C 11.032496 23.311285 11.456383 23.380991 11.814332 23.478956 C 12.172282 23.565617 12.437918 23.652279 12.611241 23.73894 C 13.101066 24.010228 13.344095 24.298471 13.344095 24.601786 C 13.344095 24.959736 13.101066 25.274355 12.611241 25.545643 C 12.16663 25.805627 11.47899 25.935619 10.544554 25.935619 L 9.551715 25.935619 C 9.770253 29.581051 9.943576 32.983454 10.073568 36.140945 C 10.214864 39.296552 10.3279 42.226085 10.414562 44.927661 C 10.457893 45.556898 10.491804 46.084403 10.512527 46.506406 C 10.535134 46.930294 10.544554 47.250564 10.544554 47.467218 L 11.554348 68.998817 C 12.974842 68.998817 13.837689 69.09113 14.141004 69.275757 C 15.303397 69.49241 15.883652 69.908762 15.883652 70.52858 C 15.883652 71.374471 15.101815 71.798358 13.540025 71.798358 C 13.104834 71.798358 12.08562 71.753143 10.4805 71.666482 C 8.884799 71.579821 6.710727 71.444177 3.954517 71.25955 Z M 25.881744 25.072772 C 24.276624 24.846699 23.474063 24.400204 23.474063 23.73894 C 23.474063 23.467652 23.696369 23.202016 24.14098 22.942032 C 24.54226 22.670744 25.122515 22.491769 25.881744 22.405107 L 29.007208 22.339169 C 31.362138 22.339169 32.874945 22.849718 33.547513 23.868932 C 32.874945 27.915644 31.818053 31.372682 30.374951 34.236277 C 28.93185 37.099873 26.946173 39.356838 24.417919 41.007173 C 23.832013 41.267157 23.006845 41.39715 21.944301 41.39715 C 20.391931 41.39715 19.61763 41.065575 19.61763 40.404311 C 19.61763 40.230988 19.725014 39.965352 19.941668 39.607402 C 22.209937 38.098363 23.918674 36.233258 25.069764 34.00832 C 26.230274 31.783382 27.189201 28.827473 27.950315 25.138711 Z M 53.001122 69.339811 C 52.91446 68.981861 52.839103 68.292338 52.773165 67.273124 C 52.70911 66.242606 52.675199 64.886167 52.675199 63.203804 L 52.675199 60.193261 C 52.675199 57.437051 52.605494 54.963432 52.464198 52.772405 C 52.334206 50.570074 52.117552 48.693666 51.812353 47.141296 C 51.226446 43.897144 49.935944 42.275068 47.938964 42.275068 C 47.136403 42.275068 46.388477 42.633017 45.693302 43.348916 C 45.011314 44.055395 44.472506 45.004903 44.08253 46.197439 L 44.08253 48.931043 L 44.00152 59.070431 C 44.00152 60.666131 44.033547 62.2656 44.099485 63.872605 C 44.174843 65.466421 44.255853 67.088497 44.342514 68.736949 C 44.027895 69.671385 43.204612 70.136719 41.868895 70.136719 C 41.294292 70.136719 40.740413 70.029334 40.20914 69.812681 C 39.677868 69.584724 39.297311 69.290828 39.071238 68.932879 C 38.982693 67.197766 38.907335 65.509752 38.843281 63.872605 C 38.777343 62.222269 38.745316 60.643524 38.745316 59.136369 L 38.80937 49.337975 C 38.80937 47.559531 38.788646 45.905428 38.745316 44.375665 C 38.701985 42.834599 38.636047 41.374542 38.549385 39.997379 C 38.549385 39.509437 38.782994 39.123229 39.250213 38.842521 C 39.715547 38.548626 40.28073 38.401678 40.941995 38.401678 C 41.874547 38.401678 42.532044 38.548626 42.910716 38.842521 C 43.291273 39.123229 43.611544 39.709135 43.871528 40.600241 C 45.433318 39.709135 46.925402 39.264525 48.345896 39.264525 C 51.590048 39.264525 53.924254 40.44199 55.344748 42.79692 C 58.360943 40.929931 61.094546 39.997379 63.547442 39.997379 C 67.094909 39.997379 69.634466 41.287881 71.164228 43.870768 C 72.703411 46.442352 73.473944 50.087784 73.473944 54.807065 C 73.473944 57.82326 73.219612 60.888437 72.709063 64.002597 C 72.200398 67.116757 71.478847 70.001075 70.544411 72.659321 C 70.229792 73.593757 69.276516 74.059091 67.680815 74.059091 C 66.964917 74.059091 66.384662 73.923447 65.940051 73.652159 C 65.49544 73.392175 65.271251 72.996547 65.271251 72.465274 C 65.891068 70.771608 66.422341 68.883896 66.866952 66.802138 C 67.311562 64.707192 67.669512 62.565147 67.9408 60.372236 C 68.212088 58.169905 68.347732 56.091915 68.347732 54.140148 C 68.347732 52.001872 68.148034 50.070829 67.746754 48.345136 C 67.343589 46.610023 66.742611 45.23286 65.940051 44.211762 C 65.135607 43.181245 64.139 42.666928 62.94458 42.666928 C 62.012027 42.666928 61.088895 42.92126 60.178949 43.431809 C 59.26712 43.940474 58.165013 44.841 56.874511 46.133385 C 57.405783 48.085152 57.780688 50.255455 57.997342 52.642413 C 58.225299 55.018067 58.338336 57.828911 58.338336 61.073063 L 58.274282 69.128809 C 57.959663 70.061361 57.134496 70.52858 55.800663 70.52858 C 55.22606 70.52858 54.67218 70.419311 54.140908 70.202657 C 53.609636 69.9747 53.229079 69.686457 53.001122 69.339811 Z M 111.599324 57.263728 C 112.043935 56.559133 113.019818 56.206835 114.528857 56.206835 C 116.036013 56.206835 116.791474 56.651446 116.791474 57.540668 C 116.791474 57.757321 116.768867 57.887314 116.725536 57.932528 C 116.064272 58.908411 115.732698 60.242244 115.732698 61.93591 C 115.732698 64.017668 116.341212 65.662352 117.556356 66.866192 C 118.78092 68.070032 120.348361 68.672895 122.258681 68.672895 C 123.592513 68.672895 124.894319 68.331901 126.164097 67.648029 C 127.433876 66.952853 128.464393 65.960015 129.257534 64.669513 C 130.060094 63.379011 130.461374 61.886927 130.461374 60.193261 C 130.461374 58.642775 130.00546 57.26938 129.09363 56.076843 C 128.181801 54.871119 126.636967 53.46758 124.45536 51.860576 C 123.620772 51.155981 122.919945 50.570074 122.356646 50.102856 C 121.802766 49.637522 121.375111 49.245661 121.069912 48.931043 C 118.760196 46.621327 117.603454 43.663534 117.603454 40.061433 C 117.603454 37.849682 118.000967 35.798067 118.792223 33.910355 C 119.594784 32.022643 120.728918 30.519255 122.194627 29.402076 C 123.701782 28.296201 125.52544 27.742322 127.661833 27.742322 C 129.528822 27.742322 131.107567 28.284897 132.398069 29.370049 C 133.688571 30.455201 134.334763 31.886999 134.334763 33.667326 C 134.334763 35.044489 133.266567 35.734013 131.12829 35.734013 C 129.664466 35.734013 128.931611 35.200857 128.931611 34.138312 L 129.061603 33.53545 C 129.061603 32.472906 128.974942 31.696721 128.801619 31.208779 C 128.573662 30.720837 128.236436 30.475925 127.791825 30.475925 L 127.531841 30.475925 C 126.022801 31.009081 124.85664 32.152635 124.033356 33.910355 C 123.208189 35.656771 122.795605 37.642449 122.795605 39.867387 C 122.795605 41.819153 123.049937 43.365871 123.560486 44.505658 C 124.071035 45.63414 124.813309 46.64205 125.791076 47.533156 C 126.593636 48.335716 127.797477 49.403913 129.402597 50.737745 C 131.659563 52.474742 133.275987 53.976245 134.253754 55.246024 C 135.240941 56.504499 135.734534 57.958904 135.734534 59.607355 C 135.734534 62.048946 135.110948 64.170268 133.861893 65.971318 C 132.614722 67.772369 130.926708 69.140113 128.801619 70.072665 C 126.620012 70.961887 124.532601 71.406498 122.535621 71.406498 C 120.267352 71.406498 118.223272 71.016521 116.399614 70.234684 C 114.57784 69.454731 113.134739 68.331901 112.07031 66.866192 C 110.996462 65.445698 110.459538 63.801015 110.459538 61.93591 C 110.459538 59.840964 110.840095 58.284826 111.599324 57.263728 Z M 146.661411 41.331211 C 146.748072 41.819153 146.82343 42.580267 146.889368 43.610784 C 146.955306 44.629998 146.987333 45.914848 146.987333 47.467218 L 146.987333 50.460805 C 146.987333 53.217016 147.051387 55.696286 147.183263 57.898617 C 147.322675 60.100948 147.550632 61.979241 147.865251 63.529727 C 148.441738 66.773879 149.726588 68.395955 151.723569 68.395955 C 152.97074 68.395955 154.261242 67.088497 155.596958 64.473583 L 155.596958 61.73998 L 155.661012 51.600592 C 155.661012 50.006775 155.628985 48.411074 155.563047 46.815373 C 155.498993 45.210253 155.417984 43.582525 155.320019 41.934074 C 155.677968 41.001521 156.503136 40.534303 157.793637 40.534303 C 158.36824 40.534303 158.92212 40.64734 159.453392 40.875297 C 159.984665 41.093834 160.365221 41.380194 160.593179 41.738143 C 160.67984 43.47514 160.755198 45.155618 160.821136 46.783346 C 160.88519 48.39977 160.917217 49.984167 160.917217 51.536538 L 160.853163 61.333048 C 160.853163 63.111491 160.873886 64.77313 160.917217 66.312312 C 160.971851 67.842075 161.043441 69.29648 161.130103 70.673643 C 161.130103 71.163469 160.896494 71.547793 160.429275 71.830385 C 159.963941 72.122396 159.393106 72.269344 158.720538 72.269344 C 157.787986 72.269344 157.132373 72.122396 156.751816 71.830385 C 156.382563 71.547793 156.062293 70.961887 155.791005 70.072665 C 154.543834 70.907252 153.253332 71.325488 151.917615 71.325488 L 151.331709 71.25955 C 148.664043 70.869574 146.580401 69.720368 145.082665 67.810048 C 143.596233 65.890309 142.631654 63.465673 142.187043 60.536139 C 141.968506 59.243753 141.806486 57.779929 141.697218 56.140897 C 141.589833 54.492446 141.535198 52.712119 141.535198 50.803683 L 141.535198 45.741525 C 141.535198 45.426906 141.518243 44.927661 141.486216 44.245673 C 141.465492 43.550498 141.431581 42.649972 141.388251 41.544097 C 141.7462 40.609661 142.571368 40.144327 143.86187 40.144327 C 144.438356 40.144327 144.990352 40.257363 145.521624 40.48532 C 146.054781 40.701974 146.433453 40.984566 146.661411 41.331211 Z M 170.058114 18.74272 C 170.274768 18.38477 170.649673 18.096527 171.180945 17.879873 C 171.723521 17.651916 172.281169 17.538879 172.857656 17.538879 C 174.191488 17.538879 175.011004 18.004214 175.314319 18.93865 C 175.227658 21.476323 175.118389 24.922057 174.988397 29.272084 C 174.858404 33.623995 174.75102 38.891504 174.662474 45.074609 C 174.566393 51.248294 174.451473 56.515802 174.32148 60.877133 C 174.191488 65.22716 174.082219 68.667243 173.995558 71.195496 C 173.680939 72.128048 172.722012 72.595266 171.115007 72.595266 C 170.410412 72.595266 169.835809 72.459622 169.391198 72.188335 C 168.944703 71.92835 168.722398 71.530838 168.722398 70.999566 C 168.722398 63.578709 168.831667 55.50224 169.04832 46.768275 C 169.276278 38.034309 169.613504 28.691829 170.058114 18.74272 Z M 177.985752 37.40884 C 176.391935 37.180882 175.595027 36.736271 175.595027 36.075007 C 175.595027 35.803719 175.817332 35.538083 176.261943 35.278099 C 176.651919 35.006811 177.226522 34.827836 177.985752 34.741174 L 182.85198 34.741174 L 183.113848 31.664693 C 183.341805 31.318048 183.720478 31.035456 184.251751 30.818802 C 184.784907 30.590845 185.342554 30.475925 185.928461 30.475925 C 187.252874 30.475925 188.070506 30.943143 188.385124 31.875695 L 188.191078 34.611182 C 188.635689 34.556548 189.334632 34.528289 190.289792 34.528289 C 191.244952 34.528289 192.477051 34.528289 193.984207 34.528289 C 194.916759 34.528289 195.606283 34.663933 196.050893 34.935221 C 196.538835 35.206509 196.783748 35.515476 196.783748 35.864005 C 196.783748 36.406581 196.252475 36.785254 195.188047 37.001908 C 194.700105 37.090453 194.07652 37.154507 193.31729 37.197838 C 192.569364 37.241168 191.700866 37.263776 190.713679 37.263776 L 187.914138 37.263776 L 187.784146 40.338373 C 187.610823 43.181245 187.475179 45.628488 187.377214 47.67822 C 187.290553 49.718531 187.247222 51.383938 187.247222 52.67444 C 187.247222 63.339448 188.673368 68.672895 191.527543 68.672895 C 192.188808 68.672895 192.774714 68.525947 193.285263 68.233936 C 193.793928 67.94004 194.55881 67.348482 195.579907 66.45926 L 196.653756 65.270491 C 197.185028 64.739219 198.07425 64.473583 199.323305 64.473583 C 200.873791 64.473583 201.649976 64.918194 201.649976 65.809299 C 201.649976 66.025953 201.627368 66.155945 201.584038 66.199276 C 200.434832 67.847727 198.937096 69.128809 197.092715 70.040638 C 195.248333 70.950583 193.300335 71.406498 191.250603 71.406498 C 189.611572 71.406498 188.179774 71.129558 186.953327 70.577562 C 185.728763 70.012379 184.871568 69.134461 184.381743 67.94004 C 182.831257 63.665371 182.055072 57.996582 182.055072 50.933675 C 182.055072 47.028259 182.256654 42.51998 182.657934 37.40884 Z M 205.924645 44.341754 C 205.338739 44.603623 204.513571 44.733615 203.451027 44.733615 C 201.898656 44.733615 201.122471 44.402041 201.122471 43.740776 C 201.122471 43.55615 201.23174 43.290513 201.448394 42.941984 C 201.448394 42.941984 201.828951 42.361729 202.58818 41.201219 C 203.249444 40.182005 204.311989 39.341766 205.777698 38.678618 C 207.252826 38.00605 208.946492 37.670708 210.854927 37.670708 C 214.673682 37.670708 217.369607 39.215542 218.9427 42.308979 C 220.527097 45.389227 221.320238 49.729835 221.320238 55.327033 C 221.320238 57.909921 221.271255 60.100948 221.17329 61.901999 C 221.086629 63.70305 220.928377 65.347733 220.70042 66.834165 C 220.483767 68.320597 220.154076 69.931369 219.707582 71.666482 C 219.447597 72.600918 218.492437 73.066253 216.843986 73.066253 C 216.139391 73.066253 215.562904 72.930609 215.118293 72.659321 C 214.673682 72.399336 214.451377 72.003708 214.451377 71.472436 C 214.538038 70.941163 214.647307 70.603937 214.777299 70.462642 C 214.918595 70.245988 215.054239 69.85036 215.184231 69.275757 C 213.403904 69.937021 211.761105 70.268595 210.252065 70.268595 C 207.855688 70.268595 205.896386 69.481107 204.377927 67.908013 C 202.868888 66.323616 202.11531 64.066651 202.11531 61.137117 C 202.11531 58.154834 203.027139 55.886565 204.848913 54.334195 C 206.672571 52.783709 209.362844 52.007524 212.921614 52.007524 C 213.452887 52.007524 213.974739 52.039551 214.483404 52.105489 C 214.993953 52.171427 215.493198 52.246785 215.98114 52.333446 C 215.721155 48.384699 215.233214 45.406183 214.517315 43.397898 C 213.801416 41.31614 212.601344 40.116067 210.920866 39.801449 C 208.912581 39.801449 207.578748 40.447642 206.917484 41.738143 C 206.602865 42.312746 206.271291 43.181245 205.924645 44.341754 Z M 215.248285 56.532758 C 214.847005 55.782948 214.445725 55.262979 214.044445 54.969084 C 213.643165 54.677073 213.155223 54.530125 212.58062 54.530125 C 210.941589 54.530125 209.70007 55.187621 208.854179 56.498847 C 208.006404 57.811956 207.5844 59.445336 207.5844 61.398986 C 207.5844 63.047437 207.827429 64.473583 208.315371 65.677423 C 208.805196 66.871844 209.62848 67.512385 210.790873 67.599046 C 212.211367 67.599046 213.388832 66.822861 214.321385 65.270491 C 215.253937 63.708701 215.721155 61.930258 215.721155 59.933277 C 215.721155 58.556114 215.562904 57.421979 215.248285 56.532758 Z M 242.105795 69.339811 C 242.019133 68.981861 241.941892 68.292338 241.877838 67.273124 C 241.8119 66.242606 241.779872 64.886167 241.779872 63.203804 L 241.779872 60.193261 C 241.779872 57.437051 241.710167 54.963432 241.568871 52.772405 C 241.438879 50.570074 241.220341 48.693666 240.917026 47.141296 C 240.331119 43.897144 239.040618 42.275068 237.043637 42.275068 C 235.796466 42.275068 234.509732 43.582525 233.187203 46.197439 L 233.187203 48.931043 L 233.106193 59.070431 C 233.106193 60.666131 233.13822 62.2656 233.202274 63.872605 C 233.279516 65.466421 233.360526 67.088497 233.447187 68.736949 C 233.132568 69.671385 232.307401 70.136719 230.973568 70.136719 C 230.398965 70.136719 229.845086 70.029334 229.313813 69.812681 C 228.782541 69.584724 228.401984 69.290828 228.174027 68.932879 C 228.087366 67.197766 228.012008 65.509752 227.94607 63.872605 C 227.882016 62.222269 227.848105 60.643524 227.848105 59.136369 L 227.914043 49.337975 C 227.914043 47.559531 227.891435 45.905428 227.848105 44.375665 C 227.804774 42.834599 227.74072 41.374542 227.654058 39.997379 C 227.654058 39.509437 227.887668 39.123229 228.353002 38.842521 C 228.82022 38.548626 229.383519 38.401678 230.046668 38.401678 C 230.97922 38.401678 231.634833 38.548626 232.015389 38.842521 C 232.394062 39.123229 232.714333 39.709135 232.976201 40.600241 C 234.223372 39.752466 235.513874 39.330463 236.84959 39.330463 C 239.517255 39.330463 241.60655 40.153746 243.113705 41.804081 C 244.622744 43.452533 245.685289 45.813115 246.303223 48.883944 C 246.93246 51.943469 247.247079 55.603973 247.247079 59.869223 L 247.247079 64.929497 C 247.247079 65.244116 247.258382 65.749013 247.28099 66.442305 C 247.301713 67.126176 247.335624 68.02105 247.378955 69.128809 C 247.064336 70.061361 246.239169 70.52858 244.905336 70.52858 C 244.328849 70.52858 243.776853 70.419311 243.243697 70.202657 C 242.712425 69.9747 242.333752 69.686457 242.105795 69.339811 Z M 242.105795 69.339811 " stroke="#ffffff" stroke-width="5.000002" stroke-opacity="1" stroke-miterlimit="4"/><g fill="#ffbd59" fill-opacity="1"><g transform="translate(219.141528, 239.715744)"><g><path d="M 8.15625 0.546875 C 5.113281 0.0859375 3.59375 -0.644531 3.59375 -1.65625 C 3.59375 -2.488281 4.328125 -3.25 5.796875 -3.9375 C 7.273438 -4.625 8.984375 -4.96875 10.921875 -4.96875 L 13 -4.84375 C 12.90625 -7.238281 12.785156 -9.515625 12.640625 -11.671875 C 12.503906 -13.835938 12.390625 -15.9375 12.296875 -17.96875 C 12.203125 -19.90625 12.109375 -21.75 12.015625 -23.5 C 11.929688 -25.25 11.84375 -26.90625 11.75 -28.46875 L 11.46875 -34.6875 L 10.5 -55.84375 C 10.40625 -60.726562 9.851562 -72.0625 8.84375 -89.84375 L 8.703125 -93.4375 L 6.640625 -93.4375 C 3.316406 -93.894531 1.65625 -94.816406 1.65625 -96.203125 C 1.65625 -96.753906 2.117188 -97.304688 3.046875 -97.859375 C 3.867188 -98.410156 5.066406 -98.78125 6.640625 -98.96875 L 21.84375 -98.96875 C 22.851562 -98.875 23.726562 -98.734375 24.46875 -98.546875 C 25.207031 -98.367188 25.757812 -98.1875 26.125 -98 C 27.132812 -97.445312 27.640625 -96.847656 27.640625 -96.203125 C 27.640625 -95.460938 27.132812 -94.816406 26.125 -94.265625 C 25.195312 -93.710938 23.769531 -93.4375 21.84375 -93.4375 L 19.765625 -93.4375 C 20.222656 -85.882812 20.585938 -78.832031 20.859375 -72.28125 C 21.140625 -65.738281 21.375 -59.660156 21.5625 -54.046875 C 21.65625 -52.753906 21.722656 -51.671875 21.765625 -50.796875 C 21.816406 -49.921875 21.84375 -49.253906 21.84375 -48.796875 L 23.90625 -4.140625 C 26.851562 -4.140625 28.648438 -3.957031 29.296875 -3.59375 C 31.691406 -3.132812 32.890625 -2.257812 32.890625 -0.96875 C 32.890625 0.78125 31.28125 1.65625 28.0625 1.65625 C 27.132812 1.65625 25.007812 1.5625 21.6875 1.375 C 18.375 1.195312 13.863281 0.921875 8.15625 0.546875 Z M 8.15625 0.546875 "/></g></g></g><g fill="#ffbd59" fill-opacity="1"><g transform="translate(254.384607, 239.715744)"><g><path d="M 18.390625 -95.234375 C 15.066406 -95.691406 13.40625 -96.613281 13.40625 -98 C 13.40625 -98.550781 13.867188 -99.101562 14.796875 -99.65625 C 15.617188 -100.207031 16.816406 -100.578125 18.390625 -100.765625 L 24.875 -100.90625 C 29.757812 -100.90625 32.894531 -99.84375 34.28125 -97.71875 C 32.894531 -89.332031 30.703125 -82.164062 27.703125 -76.21875 C 24.710938 -70.28125 20.59375 -65.609375 15.34375 -62.203125 C 14.144531 -61.648438 12.441406 -61.375 10.234375 -61.375 C 7.003906 -61.375 5.390625 -62.0625 5.390625 -63.4375 C 5.390625 -63.8125 5.617188 -64.363281 6.078125 -65.09375 C 10.773438 -68.226562 14.320312 -72.097656 16.71875 -76.703125 C 19.113281 -81.316406 21.097656 -87.445312 22.671875 -95.09375 Z M 18.390625 -95.234375 "/></g></g></g><g fill="#ffbd59" fill-opacity="1"><g transform="translate(292.391823, 239.715744)"><g><path d="M 36.625 -3.453125 C 36.4375 -4.191406 36.273438 -5.617188 36.140625 -7.734375 C 36.003906 -9.859375 35.9375 -12.671875 35.9375 -16.171875 L 35.9375 -22.390625 C 35.9375 -28.109375 35.796875 -33.242188 35.515625 -37.796875 C 35.242188 -42.359375 34.785156 -46.253906 34.140625 -49.484375 C 32.941406 -56.210938 30.269531 -59.578125 26.125 -59.578125 C 24.46875 -59.578125 22.921875 -58.835938 21.484375 -57.359375 C 20.054688 -55.890625 18.929688 -53.910156 18.109375 -51.421875 L 18.109375 -45.75 L 17.96875 -24.734375 C 17.96875 -21.421875 18.035156 -18.101562 18.171875 -14.78125 C 18.316406 -11.46875 18.476562 -8.109375 18.65625 -4.703125 C 18.007812 -2.765625 16.304688 -1.796875 13.546875 -1.796875 C 12.347656 -1.796875 11.195312 -2.023438 10.09375 -2.484375 C 8.988281 -2.941406 8.203125 -3.539062 7.734375 -4.28125 C 7.554688 -7.875 7.394531 -11.375 7.25 -14.78125 C 7.113281 -18.195312 7.046875 -21.472656 7.046875 -24.609375 L 7.1875 -44.921875 C 7.1875 -48.609375 7.140625 -52.039062 7.046875 -55.21875 C 6.953125 -58.394531 6.816406 -61.410156 6.640625 -64.265625 C 6.640625 -65.285156 7.117188 -66.09375 8.078125 -66.6875 C 9.046875 -67.289062 10.222656 -67.59375 11.609375 -67.59375 C 13.546875 -67.59375 14.90625 -67.289062 15.6875 -66.6875 C 16.46875 -66.09375 17.132812 -64.875 17.6875 -63.03125 C 20.914062 -64.875 24.003906 -65.796875 26.953125 -65.796875 C 33.679688 -65.796875 38.519531 -63.351562 41.46875 -58.46875 C 47.726562 -62.332031 53.394531 -64.265625 58.46875 -64.265625 C 65.84375 -64.265625 71.117188 -61.59375 74.296875 -56.25 C 77.472656 -50.90625 79.0625 -43.351562 79.0625 -33.59375 C 79.0625 -27.320312 78.53125 -20.960938 77.46875 -14.515625 C 76.40625 -8.066406 74.910156 -2.078125 72.984375 3.453125 C 72.335938 5.390625 70.351562 6.359375 67.03125 6.359375 C 65.5625 6.359375 64.363281 6.082031 63.4375 5.53125 C 62.519531 4.976562 62.0625 4.148438 62.0625 3.046875 C 63.351562 -0.460938 64.457031 -4.378906 65.375 -8.703125 C 66.300781 -13.035156 67.039062 -17.484375 67.59375 -22.046875 C 68.144531 -26.609375 68.421875 -30.914062 68.421875 -34.96875 C 68.421875 -39.394531 68.003906 -43.40625 67.171875 -47 C 66.347656 -50.59375 65.101562 -53.445312 63.4375 -55.5625 C 61.78125 -57.6875 59.707031 -58.75 57.21875 -58.75 C 55.28125 -58.75 53.367188 -58.21875 51.484375 -57.15625 C 49.597656 -56.09375 47.316406 -54.226562 44.640625 -51.5625 C 45.742188 -47.5 46.523438 -43.003906 46.984375 -38.078125 C 47.453125 -33.148438 47.6875 -27.320312 47.6875 -20.59375 L 47.546875 -3.875 C 46.898438 -1.9375 45.195312 -0.96875 42.4375 -0.96875 C 41.238281 -0.96875 40.082031 -1.195312 38.96875 -1.65625 C 37.863281 -2.113281 37.082031 -2.710938 36.625 -3.453125 Z M 36.625 -3.453125 "/></g></g></g><g fill="#ffbd59" fill-opacity="1"><g transform="translate(380.015774, 239.715744)"><g/></g></g><g fill="#ffbd59" fill-opacity="1"><g transform="translate(449.119819, 239.715744)"><g><path d="M 1.375 -28.46875 C 2.300781 -29.945312 4.332031 -30.6875 7.46875 -30.6875 C 10.59375 -30.6875 12.15625 -29.765625 12.15625 -27.921875 C 12.15625 -27.460938 12.113281 -27.1875 12.03125 -27.09375 C 10.644531 -25.0625 9.953125 -22.296875 9.953125 -18.796875 C 9.953125 -14.460938 11.21875 -11.050781 13.75 -8.5625 C 16.28125 -6.082031 19.53125 -4.84375 23.5 -4.84375 C 26.257812 -4.84375 28.953125 -5.554688 31.578125 -6.984375 C 34.203125 -8.410156 36.347656 -10.457031 38.015625 -13.125 C 39.671875 -15.800781 40.5 -18.890625 40.5 -22.390625 C 40.5 -25.617188 39.550781 -28.472656 37.65625 -30.953125 C 35.769531 -33.441406 32.570312 -36.347656 28.0625 -39.671875 C 26.3125 -41.140625 24.859375 -42.359375 23.703125 -43.328125 C 22.554688 -44.296875 21.660156 -45.101562 21.015625 -45.75 C 16.222656 -50.539062 13.828125 -56.671875 13.828125 -64.140625 C 13.828125 -68.742188 14.65625 -73.003906 16.3125 -76.921875 C 17.96875 -80.835938 20.316406 -83.945312 23.359375 -86.25 C 26.492188 -88.550781 30.269531 -89.703125 34.6875 -89.703125 C 38.5625 -89.703125 41.832031 -88.570312 44.5 -86.3125 C 47.175781 -84.0625 48.515625 -81.09375 48.515625 -77.40625 C 48.515625 -74.550781 46.300781 -73.125 41.875 -73.125 C 38.832031 -73.125 37.3125 -74.226562 37.3125 -76.4375 L 37.59375 -77.671875 C 37.59375 -79.890625 37.410156 -81.503906 37.046875 -82.515625 C 36.578125 -83.523438 35.882812 -84.03125 34.96875 -84.03125 L 34.421875 -84.03125 C 31.285156 -82.925781 28.863281 -80.550781 27.15625 -76.90625 C 25.457031 -73.269531 24.609375 -69.148438 24.609375 -64.546875 C 24.609375 -60.492188 25.132812 -57.289062 26.1875 -54.9375 C 27.25 -52.59375 28.796875 -50.5 30.828125 -48.65625 C 32.484375 -47 34.96875 -44.785156 38.28125 -42.015625 C 42.976562 -38.421875 46.34375 -35.3125 48.375 -32.6875 C 50.40625 -30.0625 51.421875 -27.046875 51.421875 -23.640625 C 51.421875 -18.566406 50.128906 -14.164062 47.546875 -10.4375 C 44.960938 -6.707031 41.460938 -3.875 37.046875 -1.9375 C 32.523438 -0.09375 28.191406 0.828125 24.046875 0.828125 C 19.347656 0.828125 15.109375 0.0195312 11.328125 -1.59375 C 7.554688 -3.207031 4.5625 -5.53125 2.34375 -8.5625 C 0.132812 -11.519531 -0.96875 -14.929688 -0.96875 -18.796875 C -0.96875 -23.128906 -0.1875 -26.351562 1.375 -28.46875 Z M 1.375 -28.46875 "/></g></g></g><g fill="#ffbd59" fill-opacity="1"><g transform="translate(506.061562, 239.715744)"><g><path d="M 17.140625 -61.5 C 17.328125 -60.488281 17.488281 -58.921875 17.625 -56.796875 C 17.757812 -54.679688 17.828125 -52.015625 17.828125 -48.796875 L 17.828125 -42.578125 C 17.828125 -36.859375 17.960938 -31.71875 18.234375 -27.15625 C 18.515625 -22.59375 18.976562 -18.703125 19.625 -15.484375 C 20.820312 -8.753906 23.492188 -5.390625 27.640625 -5.390625 C 30.222656 -5.390625 32.894531 -8.109375 35.65625 -13.546875 L 35.65625 -19.21875 L 35.796875 -40.21875 C 35.796875 -43.539062 35.726562 -46.859375 35.59375 -50.171875 C 35.457031 -53.492188 35.296875 -56.859375 35.109375 -60.265625 C 35.847656 -62.203125 37.550781 -63.171875 40.21875 -63.171875 C 41.414062 -63.171875 42.566406 -62.9375 43.671875 -62.46875 C 44.773438 -62.007812 45.5625 -61.410156 46.03125 -60.671875 C 46.207031 -57.078125 46.363281 -53.597656 46.5 -50.234375 C 46.644531 -46.878906 46.71875 -43.585938 46.71875 -40.359375 L 46.578125 -20.046875 C 46.578125 -16.359375 46.625 -12.921875 46.71875 -9.734375 C 46.8125 -6.554688 46.945312 -3.539062 47.125 -0.6875 C 47.125 0.320312 46.640625 1.125 45.671875 1.71875 C 44.710938 2.320312 43.539062 2.625 42.15625 2.625 C 40.21875 2.625 38.859375 2.320312 38.078125 1.71875 C 37.296875 1.125 36.628906 -0.09375 36.078125 -1.9375 C 33.492188 -0.1875 30.820312 0.6875 28.0625 0.6875 L 26.8125 0.546875 C 21.28125 -0.273438 16.972656 -2.664062 13.890625 -6.625 C 10.804688 -10.59375 8.800781 -15.617188 7.875 -21.703125 C 7.414062 -24.367188 7.070312 -27.40625 6.84375 -30.8125 C 6.613281 -34.226562 6.5 -37.914062 6.5 -41.875 L 6.5 -52.390625 C 6.5 -53.035156 6.472656 -54.070312 6.421875 -55.5 C 6.378906 -56.925781 6.3125 -58.789062 6.21875 -61.09375 C 6.957031 -63.03125 8.660156 -64 11.328125 -64 C 12.523438 -64 13.675781 -63.765625 14.78125 -63.296875 C 15.894531 -62.835938 16.679688 -62.238281 17.140625 -61.5 Z M 17.140625 -61.5 "/></g></g></g><g fill="#ffbd59" fill-opacity="1"><g transform="translate(561.759416, 239.715744)"><g><path d="M 9.953125 -108.359375 C 10.410156 -109.097656 11.191406 -109.695312 12.296875 -110.15625 C 13.398438 -110.613281 14.550781 -110.84375 15.75 -110.84375 C 18.519531 -110.84375 20.226562 -109.878906 20.875 -107.953125 C 20.6875 -102.691406 20.453125 -95.546875 20.171875 -86.515625 C 19.898438 -77.492188 19.671875 -66.578125 19.484375 -53.765625 C 19.304688 -40.953125 19.078125 -30.03125 18.796875 -21 C 18.523438 -11.976562 18.296875 -4.835938 18.109375 0.421875 C 17.460938 2.347656 15.476562 3.3125 12.15625 3.3125 C 10.6875 3.3125 9.488281 3.035156 8.5625 2.484375 C 7.644531 1.929688 7.1875 1.101562 7.1875 0 C 7.1875 -15.382812 7.414062 -32.128906 7.875 -50.234375 C 8.332031 -68.347656 9.023438 -87.722656 9.953125 -108.359375 Z M 9.953125 -108.359375 "/></g></g></g><g fill="#ffbd59" fill-opacity="1"><g transform="translate(590.921313, 239.715744)"><g><path d="M -2.765625 -69.65625 C -6.078125 -70.125 -7.734375 -71.046875 -7.734375 -72.421875 C -7.734375 -72.972656 -7.273438 -73.523438 -6.359375 -74.078125 C -5.523438 -74.640625 -4.328125 -75.007812 -2.765625 -75.1875 L 7.328125 -75.1875 L 7.875 -81.546875 C 8.332031 -82.285156 9.113281 -82.882812 10.21875 -83.34375 C 11.332031 -83.800781 12.488281 -84.03125 13.6875 -84.03125 C 16.445312 -84.03125 18.148438 -83.066406 18.796875 -81.140625 L 18.390625 -75.46875 C 19.304688 -75.5625 20.753906 -75.609375 22.734375 -75.609375 C 24.710938 -75.609375 27.269531 -75.609375 30.40625 -75.609375 C 32.34375 -75.609375 33.769531 -75.332031 34.6875 -74.78125 C 35.707031 -74.226562 36.21875 -73.582031 36.21875 -72.84375 C 36.21875 -71.738281 35.109375 -70.953125 32.890625 -70.484375 C 31.878906 -70.304688 30.585938 -70.171875 29.015625 -70.078125 C 27.453125 -69.984375 25.660156 -69.9375 23.640625 -69.9375 L 17.828125 -69.9375 L 17.546875 -63.578125 C 17.179688 -57.679688 16.90625 -52.613281 16.71875 -48.375 C 16.539062 -44.132812 16.453125 -40.679688 16.453125 -38.015625 C 16.453125 -15.898438 19.398438 -4.84375 25.296875 -4.84375 C 26.679688 -4.84375 27.898438 -5.140625 28.953125 -5.734375 C 30.015625 -6.335938 31.601562 -7.5625 33.71875 -9.40625 L 35.9375 -11.890625 C 37.039062 -12.992188 38.882812 -13.546875 41.46875 -13.546875 C 44.6875 -13.546875 46.296875 -12.625 46.296875 -10.78125 C 46.296875 -10.320312 46.253906 -10.046875 46.171875 -9.953125 C 43.773438 -6.546875 40.660156 -3.894531 36.828125 -2 C 33.003906 -0.113281 28.972656 0.828125 24.734375 0.828125 C 21.328125 0.828125 18.359375 0.253906 15.828125 -0.890625 C 13.296875 -2.046875 11.519531 -3.867188 10.5 -6.359375 C 7.28125 -15.203125 5.671875 -26.953125 5.671875 -41.609375 C 5.671875 -49.710938 6.082031 -59.0625 6.90625 -69.65625 Z M -2.765625 -69.65625 "/></g></g></g><g fill="#ffbd59" fill-opacity="1"><g transform="translate(632.245544, 239.715744)"><g><path d="M 13.828125 -55.28125 C 12.628906 -54.726562 10.921875 -54.453125 8.703125 -54.453125 C 5.484375 -54.453125 3.875 -55.144531 3.875 -56.53125 C 3.875 -56.894531 4.101562 -57.445312 4.5625 -58.1875 C 4.5625 -58.1875 5.34375 -59.382812 6.90625 -61.78125 C 8.289062 -63.90625 10.503906 -65.65625 13.546875 -67.03125 C 16.585938 -68.414062 20.085938 -69.109375 24.046875 -69.109375 C 31.972656 -69.109375 37.570312 -65.90625 40.84375 -59.5 C 44.113281 -53.09375 45.75 -44.085938 45.75 -32.484375 C 45.75 -27.140625 45.65625 -22.597656 45.46875 -18.859375 C 45.289062 -15.128906 44.96875 -11.722656 44.5 -8.640625 C 44.039062 -5.554688 43.351562 -2.21875 42.4375 1.375 C 41.882812 3.3125 39.898438 4.28125 36.484375 4.28125 C 35.015625 4.28125 33.816406 4.003906 32.890625 3.453125 C 31.972656 2.898438 31.515625 2.070312 31.515625 0.96875 C 31.703125 -0.132812 31.929688 -0.828125 32.203125 -1.109375 C 32.484375 -1.566406 32.757812 -2.394531 33.03125 -3.59375 C 29.34375 -2.207031 25.9375 -1.515625 22.8125 -1.515625 C 17.832031 -1.515625 13.773438 -3.148438 10.640625 -6.421875 C 7.503906 -9.691406 5.9375 -14.367188 5.9375 -20.453125 C 5.9375 -26.628906 7.828125 -31.328125 11.609375 -34.546875 C 15.390625 -37.773438 20.960938 -39.390625 28.328125 -39.390625 C 29.441406 -39.390625 30.523438 -39.320312 31.578125 -39.1875 C 32.640625 -39.050781 33.675781 -38.890625 34.6875 -38.703125 C 34.132812 -46.898438 33.125 -53.070312 31.65625 -57.21875 C 30.175781 -61.550781 27.6875 -64.039062 24.1875 -64.6875 C 20.039062 -64.6875 17.273438 -63.347656 15.890625 -60.671875 C 15.242188 -59.472656 14.554688 -57.675781 13.828125 -55.28125 Z M 33.171875 -30 C 32.335938 -31.5625 31.503906 -32.640625 30.671875 -33.234375 C 29.847656 -33.835938 28.835938 -34.140625 27.640625 -34.140625 C 24.234375 -34.140625 21.65625 -32.78125 19.90625 -30.0625 C 18.15625 -27.34375 17.28125 -23.957031 17.28125 -19.90625 C 17.28125 -16.5 17.785156 -13.550781 18.796875 -11.0625 C 19.804688 -8.570312 21.507812 -7.234375 23.90625 -7.046875 C 26.851562 -7.046875 29.296875 -8.65625 31.234375 -11.875 C 33.171875 -15.101562 34.140625 -18.789062 34.140625 -22.9375 C 34.140625 -25.800781 33.816406 -28.15625 33.171875 -30 Z M 33.171875 -30 "/></g></g></g><g fill="#ffbd59" fill-opacity="1"><g transform="translate(684.48822, 239.715744)"><g><path d="M 36.625 -3.453125 C 36.4375 -4.191406 36.273438 -5.617188 36.140625 -7.734375 C 36.003906 -9.859375 35.9375 -12.671875 35.9375 -16.171875 L 35.9375 -22.390625 C 35.9375 -28.109375 35.796875 -33.242188 35.515625 -37.796875 C 35.242188 -42.359375 34.785156 -46.253906 34.140625 -49.484375 C 32.941406 -56.210938 30.269531 -59.578125 26.125 -59.578125 C 23.539062 -59.578125 20.867188 -56.859375 18.109375 -51.421875 L 18.109375 -45.75 L 17.96875 -24.734375 C 17.96875 -21.421875 18.035156 -18.101562 18.171875 -14.78125 C 18.316406 -11.46875 18.476562 -8.109375 18.65625 -4.703125 C 18.007812 -2.765625 16.304688 -1.796875 13.546875 -1.796875 C 12.347656 -1.796875 11.195312 -2.023438 10.09375 -2.484375 C 8.988281 -2.941406 8.203125 -3.539062 7.734375 -4.28125 C 7.554688 -7.875 7.394531 -11.375 7.25 -14.78125 C 7.113281 -18.195312 7.046875 -21.472656 7.046875 -24.609375 L 7.1875 -44.921875 C 7.1875 -48.609375 7.140625 -52.039062 7.046875 -55.21875 C 6.953125 -58.394531 6.816406 -61.410156 6.640625 -64.265625 C 6.640625 -65.285156 7.117188 -66.09375 8.078125 -66.6875 C 9.046875 -67.289062 10.222656 -67.59375 11.609375 -67.59375 C 13.546875 -67.59375 14.90625 -67.289062 15.6875 -66.6875 C 16.46875 -66.09375 17.132812 -64.875 17.6875 -63.03125 C 20.269531 -64.78125 22.941406 -65.65625 25.703125 -65.65625 C 31.234375 -65.65625 35.566406 -63.945312 38.703125 -60.53125 C 41.835938 -57.125 44.046875 -52.238281 45.328125 -45.875 C 46.617188 -39.519531 47.265625 -31.921875 47.265625 -23.078125 L 47.265625 -12.578125 C 47.265625 -11.929688 47.285156 -10.894531 47.328125 -9.46875 C 47.378906 -8.039062 47.453125 -6.175781 47.546875 -3.875 C 46.898438 -1.9375 45.195312 -0.96875 42.4375 -0.96875 C 41.238281 -0.96875 40.082031 -1.195312 38.96875 -1.65625 C 37.863281 -2.113281 37.082031 -2.710938 36.625 -3.453125 Z M 36.625 -3.453125 "/></g></g></g><path stroke-linecap="butt" transform="matrix(2.333216, 0, 0, 2.333216, 260.539919, 172.241339)" fill="none" stroke-linejoin="miter" d="M 23.287632 28.605594 C 23.331161 28.11673 23.575593 27.753431 24.020928 27.514022 C 24.464588 27.264567 25.04051 27.140677 25.745345 27.140677 C 26.40665 27.184206 27.014382 27.351625 27.568539 27.644608 C 28.132741 27.927547 28.457534 28.269082 28.544592 28.670888 L 37.28387 58.874971 L 39.610996 51.193781 L 41.2065 45.807908 C 41.879525 43.757024 42.545853 41.645869 43.207159 39.476117 C 43.880183 37.296321 44.526421 35.049556 45.144198 32.739172 C 45.589533 32.022618 46.456764 31.664341 47.749239 31.664341 L 48.008739 31.664341 C 49.29954 31.763119 50.103152 32.277095 50.4179 33.211294 C 48.984792 38.049707 47.514852 42.904861 46.006406 47.776757 C 44.499634 52.636934 42.969423 57.492089 41.417448 62.34222 L 40.083118 66.671679 C 39.76837 67.517145 38.922903 67.940716 37.545044 67.940716 C 36.252568 67.940716 35.341808 67.517145 34.81109 66.671679 C 33.259115 62.494572 31.847771 58.506649 30.578735 54.709583 C 29.309698 50.900798 28.164551 47.266129 27.144968 43.805576 L 26.73814 42.275365 L 25.420552 47.401738 C 24.703998 50.244515 24.069479 52.723992 23.515322 54.84017 C 22.962839 56.944628 22.442165 58.843161 21.953302 60.535768 C 21.466112 62.228375 20.972226 63.887499 20.473317 65.514813 C 19.984453 67.132081 19.430296 68.916769 18.812519 70.87055 C 18.497771 71.716017 17.652305 72.139587 16.274445 72.139587 C 15.698523 72.096058 15.156085 71.948729 14.647131 71.699275 C 14.136503 71.44982 13.768181 71.151814 13.540491 70.805257 C 12.475705 67.028282 11.342278 62.819365 10.138535 58.175159 C 8.944836 53.520907 7.659057 48.416298 6.281198 42.861332 L 5.012161 37.800252 C 4.479768 35.846471 4.002624 34.029974 3.579054 32.349086 C 3.157157 30.656478 2.793858 29.099481 2.489155 27.678092 C 2.489155 26.690319 3.222451 26.196433 4.685694 26.196433 L 4.946868 26.196433 C 5.663422 26.196433 6.276175 26.332043 6.78513 26.603262 C 7.295758 26.87448 7.593764 27.254522 7.680822 27.743386 C 8.298598 30.313269 9.085468 33.526042 10.041431 37.376682 C 11.005766 41.217276 12.150912 45.650534 13.475198 50.673108 L 16.209152 61.202096 L 20.277436 46.408943 L 20.880145 44.195662 C 21.367335 42.112969 21.888008 40.083849 22.442165 38.109977 C 23.006368 36.124387 23.575593 34.175628 24.14984 32.26705 Z M 70.401046 44.342991 C 70.401046 45.449632 69.830147 46.413966 68.691697 47.239342 C 67.563292 48.064718 66.136881 48.670775 64.41079 49.062536 C 63.521794 49.246697 62.718182 49.382307 62.003303 49.469365 C 61.296794 49.556422 60.679018 49.599951 60.148299 49.599951 C 58.77044 49.599951 57.412671 49.534658 56.07834 49.404071 C 56.07834 50.78193 56.252456 52.370738 56.599014 54.172168 C 56.957291 55.973597 57.4562 57.763308 58.097415 59.542973 C 58.748675 61.310919 59.497039 62.906423 60.342505 64.327811 C 61.633307 66.551137 63.119988 67.821848 64.80255 68.134922 C 65.648017 67.950761 66.359548 67.240904 66.933796 66.003677 C 67.519763 65.027623 68.078943 64.327811 68.609661 63.904241 C 69.142054 63.48067 69.851911 63.269722 70.742581 63.269722 C 72.251027 63.269722 73.004413 63.715057 73.004413 64.604053 C 73.004413 64.821698 72.982649 64.95061 72.93912 64.994139 C 71.735376 67.001495 70.541678 68.493199 69.358025 69.470926 C 68.187765 70.44698 66.75968 70.93417 65.078792 70.93417 C 63.700933 70.93417 62.323073 70.582589 60.945214 69.877755 C 59.567355 69.161201 58.390398 68.243744 57.412671 67.127059 C 56.165398 65.618613 55.042016 63.855689 54.044198 61.838289 C 53.04638 59.809169 52.242768 57.687969 51.636711 55.474688 C 51.039025 53.249688 50.741019 51.161972 50.741019 49.208191 C 50.741019 45.822976 51.516169 43.236351 53.068145 41.444966 C 54.630165 39.645211 56.74132 38.587122 59.398261 38.272374 L 61.075801 38.141787 C 62.71316 38.141787 64.243371 38.418029 65.664759 38.972186 C 67.096192 39.524669 68.258081 40.26801 69.147077 41.202209 C 69.982498 42.178262 70.401046 43.224631 70.401046 44.342991 Z M 57.804431 43.202867 C 57.272039 44.050008 56.870233 45.292258 56.599014 46.929617 C 57.22851 47.071923 58.233024 47.142239 59.610884 47.142239 C 61.161185 47.142239 62.415154 46.919571 63.369443 46.474237 C 64.325406 46.028902 64.80255 45.29728 64.80255 44.277698 C 64.671964 43.202867 64.260113 42.379165 63.565323 41.803243 C 62.882253 41.228996 62.03009 40.941035 61.010507 40.941035 C 59.719706 40.941035 58.649898 41.694421 57.804431 43.202867 Z M 81.005373 18.742934 C 81.221343 18.384657 81.596362 18.096696 82.127081 17.880726 C 82.669519 17.653036 83.228699 17.539191 83.80462 17.539191 C 85.138951 17.539191 85.95763 18.004616 86.260659 18.938814 C 86.175275 21.476888 86.066453 24.922374 85.935866 29.271922 C 85.805279 33.623145 85.696456 38.890151 85.611073 45.074613 C 85.512295 51.24903 85.39845 56.516035 85.267863 60.877303 C 85.138951 65.228526 85.030128 68.667315 84.94307 71.195343 C 84.628322 72.127868 83.669011 72.594967 82.061787 72.594967 C 81.356953 72.594967 80.782705 72.459358 80.33737 72.188139 C 79.892036 71.926965 79.671042 71.531856 79.671042 70.999463 C 79.671042 63.579448 79.778191 55.501475 79.995835 46.76722 C 80.223525 38.032965 80.560038 28.692652 81.005373 18.742934 Z M 110.333854 39.931497 C 110.692131 40.289774 110.871269 40.604522 110.871269 40.875741 C 110.871269 41.538721 110.11286 41.868537 108.592695 41.868537 L 108.072021 41.868537 C 107.628361 41.825008 107.183026 41.645869 106.737691 41.331121 C 106.292356 41.071622 105.87046 40.941035 105.468654 40.941035 L 104.737033 41.071622 C 102.913838 41.60234 101.579508 43.159338 100.732367 45.742615 C 99.886901 48.314173 99.46333 51.421471 99.46333 55.06786 C 99.46333 58.039549 99.886901 60.741694 100.732367 63.172619 C 101.579508 65.591826 102.799993 67.180633 104.393823 67.940716 L 105.127119 67.533887 C 105.528925 67.490358 105.858741 67.456875 106.119914 67.43511 C 106.391133 67.41502 106.618823 67.4033 106.802984 67.4033 C 108.713237 67.4033 109.667526 67.73479 109.667526 68.396096 C 109.667526 68.841431 109.362823 69.221472 108.756766 69.534546 C 108.159079 69.849294 107.437503 70.105445 106.592036 70.299651 C 105.756615 70.495531 104.958026 70.592635 104.199617 70.592635 C 102.245836 70.592635 100.5097 69.931329 98.991208 68.607044 C 97.482762 67.272713 96.305806 65.400968 95.460339 62.993481 C 94.624918 60.736671 94.20637 57.985975 94.20637 54.741393 C 94.20637 51.542013 94.66175 48.721001 95.574184 46.278356 C 96.484944 43.82734 97.770723 41.923785 99.431521 40.566016 C 101.102364 39.209921 103.071212 38.531874 105.338067 38.531874 C 107.064158 38.531874 108.728304 38.998973 110.333854 39.931497 Z M 114.397116 57.867107 C 114.397116 55.426137 114.896025 53.17435 115.893843 51.11342 C 116.89166 49.040772 118.215946 47.401738 119.865024 46.197995 C 121.557631 45.047826 123.337296 44.471904 125.202345 44.471904 C 128.045122 44.471904 130.551386 45.672299 132.721138 48.069741 C 133.394163 48.731046 133.839498 49.566468 134.057143 50.576005 C 134.284833 51.573823 134.398678 52.869647 134.398678 54.465151 C 134.398678 56.157758 134.17601 57.947469 133.730675 59.835956 C 133.28534 61.72277 132.694351 63.448861 131.957707 65.010881 C 131.229434 66.562856 130.422474 67.691261 129.531804 68.396096 C 128.284531 69.512781 126.57016 70.071961 124.388689 70.071961 C 122.349524 70.071961 120.574881 69.485994 119.068109 68.31406 C 117.559663 67.132081 116.404471 65.558342 115.600859 63.594515 C 114.798921 61.729467 114.397116 59.819214 114.397116 57.867107 Z M 128.994388 55.133153 C 128.994388 52.419289 128.664573 50.375102 128.001593 48.997243 C 127.286713 47.619383 126.417808 46.929617 125.398226 46.929617 C 124.465701 46.929617 123.586751 47.423503 122.761375 48.411276 C 121.937673 49.387329 121.259625 50.760166 120.727232 52.528112 C 120.152985 54.220719 119.865024 56.288345 119.865024 58.729316 C 119.865024 61.180332 120.271852 63.242935 121.085509 64.913778 C 121.910886 66.572902 123.10291 67.4033 124.666604 67.4033 C 125.5556 67.045023 126.320705 66.301683 126.960246 65.173278 C 127.611507 64.034828 128.110416 62.635204 128.458647 60.974406 C 128.81525 59.303564 128.994388 57.579147 128.994388 55.799481 Z M 154.385172 69.34034 C 154.298114 68.982063 154.222775 68.292296 154.157482 67.272713 C 154.092188 66.243086 154.060379 64.886991 154.060379 63.204429 L 154.060379 60.194233 C 154.060379 57.438515 153.990063 54.96406 153.847756 52.772544 C 153.718844 50.570982 153.501199 48.69254 153.19817 47.142239 C 152.612203 43.897656 151.319728 42.275365 149.324092 42.275365 C 148.52048 42.275365 147.772117 42.633642 147.079001 43.350196 C 146.394257 44.05503 145.858516 45.004297 145.466755 46.197995 L 145.466755 48.931949 L 145.386394 59.070851 C 145.386394 60.666355 145.418204 62.266882 145.483497 63.872431 C 145.558836 65.466261 145.640871 67.088552 145.727929 68.737631 C 145.413181 69.670155 144.587805 70.137255 143.253475 70.137255 C 142.679227 70.137255 142.12507 70.028432 141.594351 69.812461 C 141.061958 69.584771 140.681917 69.291788 140.454227 68.933511 C 140.367169 67.197375 140.29183 65.50979 140.226537 63.872431 C 140.161244 62.223353 140.129434 60.644591 140.129434 59.136144 L 140.194727 49.338778 C 140.194727 47.559112 140.172963 45.905012 140.129434 44.374801 C 140.085905 42.834545 140.020612 41.37465 139.933554 39.996791 C 139.933554 39.509601 140.166266 39.124537 140.633365 38.841599 C 141.100465 38.548616 141.664667 38.402961 142.325973 38.402961 C 143.258497 38.402961 143.916454 38.548616 144.294822 38.841599 C 144.674863 39.124537 144.994633 39.710504 145.255807 40.5995 C 146.817828 39.710504 148.309532 39.265169 149.73092 39.265169 C 152.975503 39.265169 155.307651 40.442126 156.729039 42.796039 C 159.745932 40.93099 162.479886 39.996791 164.930902 39.996791 C 168.478513 39.996791 171.018261 41.287592 172.548472 43.870869 C 174.088728 46.442427 174.858856 50.087141 174.858856 54.806686 C 174.858856 57.823579 174.604379 60.887348 174.09375 64.001344 C 173.583122 67.11534 172.86322 70.001645 171.929021 72.660261 C 171.614273 73.592785 170.659984 74.059884 169.06448 74.059884 C 168.3496 74.059884 167.768656 73.924275 167.323321 73.653056 C 166.87966 73.391882 166.656993 72.996773 166.656993 72.46438 C 167.27477 70.771773 167.807162 68.88496 168.250823 66.800592 C 168.696158 64.707853 169.054435 62.564888 169.325654 60.373372 C 169.596873 58.170136 169.732482 56.092465 169.732482 54.140358 C 169.732482 52.002416 169.531579 50.070399 169.129773 48.345982 C 168.727968 46.609846 168.126933 45.231987 167.323321 44.212404 C 166.521384 43.181103 165.521891 42.665452 164.329867 42.665452 C 163.395669 42.665452 162.473189 42.921603 161.562429 43.430557 C 160.651669 43.941185 159.550052 44.8419 158.25925 46.132702 C 158.789969 48.084808 159.164988 50.256234 159.380958 52.641957 C 159.610322 55.019308 159.724167 57.828601 159.724167 61.073184 L 159.658874 69.127717 C 159.344126 70.061916 158.51875 70.527341 157.184419 70.527341 C 156.610172 70.527341 156.056015 70.420193 155.525296 70.202548 C 154.992903 69.974858 154.612862 69.686897 154.385172 69.34034 Z M 200.047062 44.342991 C 200.047062 45.449632 199.477837 46.413966 198.337713 47.239342 C 197.209308 48.064718 195.782897 48.670775 194.05848 49.062536 C 193.16781 49.246697 192.365873 49.382307 191.649319 49.469365 C 190.944484 49.556422 190.325034 49.599951 189.794315 49.599951 C 188.416456 49.599951 187.060361 49.534658 185.726031 49.404071 C 185.726031 50.78193 185.898472 52.370738 186.246704 54.172168 C 186.604981 55.973597 187.10389 57.763308 187.743431 59.542973 C 188.394691 61.310919 189.143055 62.906423 189.990195 64.327811 C 191.280997 66.551137 192.767679 67.821848 194.448567 68.134922 C 195.295707 67.950761 196.005564 67.240904 196.579812 66.003677 C 197.165779 65.027623 197.724959 64.327811 198.257351 63.904241 C 198.78807 63.48067 199.499601 63.269722 200.388597 63.269722 C 201.897043 63.269722 202.650429 63.715057 202.650429 64.604053 C 202.650429 64.821698 202.628665 64.95061 202.585136 64.994139 C 201.381392 67.001495 200.187694 68.493199 199.005715 69.470926 C 197.833781 70.44698 196.40737 70.93417 194.724808 70.93417 C 193.346949 70.93417 191.969089 70.582589 190.59123 69.877755 C 189.213371 69.161201 188.036414 68.243744 187.060361 67.127059 C 185.813088 65.618613 184.689706 63.855689 183.691888 61.838289 C 182.692396 59.809169 181.890459 57.687969 181.282727 55.474688 C 180.686715 53.249688 180.387035 51.161972 180.387035 49.208191 C 180.387035 45.822976 181.16386 43.236351 182.714161 41.444966 C 184.277855 39.645211 186.387336 38.587122 189.045952 38.272374 L 190.721817 38.141787 C 192.36085 38.141787 193.889387 38.418029 195.310775 38.972186 C 196.743883 39.524669 197.904097 40.26801 198.793093 41.202209 C 199.628514 42.178262 200.047062 43.224631 200.047062 44.342991 Z M 187.450447 43.202867 C 186.919729 44.050008 186.517923 45.292258 186.246704 46.929617 C 186.8762 47.071923 187.87904 47.142239 189.2569 47.142239 C 190.808875 47.142239 192.06117 46.919571 193.017133 46.474237 C 193.971422 46.028902 194.448567 45.29728 194.448567 44.277698 C 194.31798 43.202867 193.906129 42.379165 193.211339 41.803243 C 192.528269 41.228996 191.676106 40.941035 190.656524 40.941035 C 189.365722 40.941035 188.297588 41.694421 187.450447 43.202867 Z M 187.450447 43.202867 " stroke="#ffffff" stroke-width="5.000002" stroke-opacity="1" stroke-miterlimit="4"/><g fill="#ffbd59" fill-opacity="1"><g transform="translate(260.576376, 337.89969)"><g><path d="M 54.28125 -98.921875 C 54.382812 -100.054688 54.953125 -100.910156 55.984375 -101.484375 C 57.023438 -102.054688 58.375 -102.34375 60.03125 -102.34375 C 61.59375 -102.238281 63.019531 -101.847656 64.3125 -101.171875 C 65.601562 -100.492188 66.351562 -99.691406 66.5625 -98.765625 L 86.9375 -28.3125 L 92.390625 -46.1875 L 96.125 -58.796875 C 97.675781 -63.554688 99.226562 -68.476562 100.78125 -73.5625 C 102.332031 -78.644531 103.835938 -83.882812 105.296875 -89.28125 C 106.328125 -90.9375 108.347656 -91.765625 111.359375 -91.765625 L 111.984375 -91.765625 C 114.992188 -91.554688 116.859375 -90.363281 117.578125 -88.1875 C 114.265625 -76.882812 110.84375 -65.554688 107.3125 -54.203125 C 103.789062 -42.847656 100.210938 -31.519531 96.578125 -20.21875 L 93.46875 -10.109375 C 92.75 -8.140625 90.78125 -7.15625 87.5625 -7.15625 C 84.550781 -7.15625 82.425781 -8.140625 81.1875 -10.109375 C 77.5625 -19.859375 74.269531 -29.164062 71.3125 -38.03125 C 68.351562 -46.894531 65.679688 -55.367188 63.296875 -63.453125 L 62.375 -67.03125 L 59.25 -55.0625 C 57.59375 -48.425781 56.113281 -42.644531 54.8125 -37.71875 C 53.519531 -32.789062 52.300781 -28.359375 51.15625 -24.421875 C 50.019531 -20.484375 48.878906 -16.617188 47.734375 -12.828125 C 46.597656 -9.046875 45.304688 -4.875 43.859375 -0.3125 C 43.128906 1.65625 41.160156 2.640625 37.953125 2.640625 C 36.597656 2.535156 35.320312 2.195312 34.125 1.625 C 32.9375 1.0625 32.085938 0.363281 31.578125 -0.46875 C 29.085938 -9.28125 26.441406 -19.101562 23.640625 -29.9375 C 20.835938 -40.769531 17.832031 -52.671875 14.625 -65.640625 L 11.671875 -77.453125 C 10.421875 -82.015625 9.300781 -86.265625 8.3125 -90.203125 C 7.332031 -94.148438 6.476562 -97.78125 5.75 -101.09375 C 5.75 -103.375 7.460938 -104.515625 10.890625 -104.515625 L 11.515625 -104.515625 C 13.171875 -104.515625 14.59375 -104.203125 15.78125 -103.578125 C 16.976562 -102.960938 17.679688 -102.082031 17.890625 -100.9375 C 19.335938 -94.925781 21.175781 -87.4375 23.40625 -78.46875 C 25.632812 -69.5 28.304688 -59.15625 31.421875 -47.4375 L 37.796875 -22.859375 L 47.28125 -57.390625 L 48.6875 -62.53125 C 49.820312 -67.394531 51.035156 -72.132812 52.328125 -76.75 C 53.628906 -81.363281 54.953125 -85.898438 56.296875 -90.359375 Z M 54.28125 -98.921875 "/></g></g></g><g fill="#ffbd59" fill-opacity="1"><g transform="translate(375.663897, 337.89969)"><g><path d="M 49.140625 -62.21875 C 49.140625 -59.625 47.816406 -57.363281 45.171875 -55.4375 C 42.535156 -53.519531 39.195312 -52.097656 35.15625 -51.171875 C 33.082031 -50.753906 31.210938 -50.441406 29.546875 -50.234375 C 27.890625 -50.023438 26.441406 -49.921875 25.203125 -49.921875 C 21.984375 -49.921875 18.816406 -50.078125 15.703125 -50.390625 C 15.703125 -47.179688 16.117188 -43.472656 16.953125 -39.265625 C 17.785156 -35.066406 18.953125 -30.894531 20.453125 -26.75 C 21.953125 -22.601562 23.6875 -18.867188 25.65625 -15.546875 C 28.664062 -10.367188 32.140625 -7.414062 36.078125 -6.6875 C 38.046875 -7.101562 39.707031 -8.765625 41.0625 -11.671875 C 42.40625 -13.953125 43.695312 -15.582031 44.9375 -16.5625 C 46.1875 -17.550781 47.847656 -18.046875 49.921875 -18.046875 C 53.453125 -18.046875 55.21875 -17.007812 55.21875 -14.9375 C 55.21875 -14.414062 55.164062 -14.101562 55.0625 -14 C 52.257812 -9.332031 49.484375 -5.859375 46.734375 -3.578125 C 43.984375 -1.296875 40.640625 -0.15625 36.703125 -0.15625 C 33.492188 -0.15625 30.28125 -0.984375 27.0625 -2.640625 C 23.84375 -4.296875 21.09375 -6.421875 18.8125 -9.015625 C 15.914062 -12.546875 13.300781 -16.671875 10.96875 -21.390625 C 8.632812 -26.109375 6.765625 -31.054688 5.359375 -36.234375 C 3.960938 -41.421875 3.265625 -46.296875 3.265625 -50.859375 C 3.265625 -58.734375 5.078125 -64.769531 8.703125 -68.96875 C 12.335938 -73.175781 17.265625 -75.640625 23.484375 -76.359375 L 27.375 -76.671875 C 31.207031 -76.671875 34.78125 -76.019531 38.09375 -74.71875 C 41.414062 -73.425781 44.113281 -71.691406 46.1875 -69.515625 C 48.15625 -67.234375 49.140625 -64.800781 49.140625 -62.21875 Z M 19.75 -64.859375 C 18.507812 -62.890625 17.578125 -59.984375 16.953125 -56.140625 C 18.398438 -55.835938 20.734375 -55.6875 23.953125 -55.6875 C 27.578125 -55.6875 30.503906 -56.203125 32.734375 -57.234375 C 34.960938 -58.273438 36.078125 -59.988281 36.078125 -62.375 C 35.765625 -64.851562 34.804688 -66.765625 33.203125 -68.109375 C 31.597656 -69.460938 29.601562 -70.140625 27.21875 -70.140625 C 24.207031 -70.140625 21.71875 -68.378906 19.75 -64.859375 Z M 19.75 -64.859375 "/></g></g></g><g fill="#ffbd59" fill-opacity="1"><g transform="translate(438.339925, 337.89969)"><g><path d="M 11.203125 -121.9375 C 11.710938 -122.769531 12.585938 -123.441406 13.828125 -123.953125 C 15.078125 -124.472656 16.378906 -124.734375 17.734375 -124.734375 C 20.835938 -124.734375 22.753906 -123.644531 23.484375 -121.46875 C 23.273438 -115.5625 23.015625 -107.523438 22.703125 -97.359375 C 22.390625 -87.203125 22.132812 -74.914062 21.9375 -60.5 C 21.726562 -46.082031 21.46875 -33.796875 21.15625 -23.640625 C 20.84375 -13.484375 20.582031 -5.445312 20.375 0.46875 C 19.644531 2.644531 17.414062 3.734375 13.6875 3.734375 C 12.03125 3.734375 10.679688 3.421875 9.640625 2.796875 C 8.609375 2.171875 8.09375 1.238281 8.09375 0 C 8.09375 -17.3125 8.347656 -36.15625 8.859375 -56.53125 C 9.378906 -76.90625 10.160156 -98.707031 11.203125 -121.9375 Z M 11.203125 -121.9375 "/></g></g></g><g fill="#ffbd59" fill-opacity="1"><g transform="translate(471.155406, 337.89969)"><g><path d="M 46.8125 -72.484375 C 47.644531 -71.648438 48.0625 -70.921875 48.0625 -70.296875 C 48.0625 -68.742188 46.296875 -67.96875 42.765625 -67.96875 L 41.53125 -67.96875 C 40.488281 -68.070312 39.453125 -68.488281 38.421875 -69.21875 C 37.378906 -69.832031 36.394531 -70.140625 35.46875 -70.140625 L 33.75 -69.828125 C 29.5 -68.585938 26.390625 -64.957031 24.421875 -58.9375 C 22.453125 -52.925781 21.46875 -45.671875 21.46875 -37.171875 C 21.46875 -30.222656 22.453125 -23.921875 24.421875 -18.265625 C 26.390625 -12.617188 29.238281 -8.914062 32.96875 -7.15625 L 34.6875 -8.09375 C 35.613281 -8.195312 36.390625 -8.273438 37.015625 -8.328125 C 37.640625 -8.378906 38.160156 -8.40625 38.578125 -8.40625 C 43.035156 -8.40625 45.265625 -7.625 45.265625 -6.0625 C 45.265625 -5.03125 44.5625 -4.148438 43.15625 -3.421875 C 41.757812 -2.691406 40.078125 -2.09375 38.109375 -1.625 C 36.140625 -1.164062 34.269531 -0.9375 32.5 -0.9375 C 27.9375 -0.9375 23.894531 -2.488281 20.375 -5.59375 C 16.851562 -8.707031 14.101562 -13.0625 12.125 -18.65625 C 10.15625 -23.945312 9.171875 -30.378906 9.171875 -37.953125 C 9.171875 -45.410156 10.234375 -51.988281 12.359375 -57.6875 C 14.484375 -63.394531 17.488281 -67.832031 21.375 -71 C 25.269531 -74.164062 29.863281 -75.75 35.15625 -75.75 C 39.195312 -75.75 43.082031 -74.660156 46.8125 -72.484375 Z M 46.8125 -72.484375 "/></g></g></g><g fill="#ffbd59" fill-opacity="1"><g transform="translate(522.478223, 337.89969)"><g><path d="M 4.984375 -30.640625 C 4.984375 -36.335938 6.144531 -41.597656 8.46875 -46.421875 C 10.800781 -51.242188 13.890625 -55.054688 17.734375 -57.859375 C 21.671875 -60.554688 25.816406 -61.90625 30.171875 -61.90625 C 36.804688 -61.90625 42.664062 -59.101562 47.75 -53.5 C 49.300781 -51.945312 50.335938 -50.003906 50.859375 -47.671875 C 51.378906 -45.335938 51.640625 -42.304688 51.640625 -38.578125 C 51.640625 -34.628906 51.117188 -30.453125 50.078125 -26.046875 C 49.046875 -21.640625 47.671875 -17.617188 45.953125 -13.984375 C 44.242188 -10.359375 42.351562 -7.71875 40.28125 -6.0625 C 37.375 -3.46875 33.382812 -2.171875 28.3125 -2.171875 C 23.539062 -2.171875 19.390625 -3.546875 15.859375 -6.296875 C 12.335938 -9.046875 9.644531 -12.703125 7.78125 -17.265625 C 5.914062 -21.617188 4.984375 -26.078125 4.984375 -30.640625 Z M 39.03125 -37.015625 C 39.03125 -43.335938 38.253906 -48.109375 36.703125 -51.328125 C 35.046875 -54.535156 33.023438 -56.140625 30.640625 -56.140625 C 28.460938 -56.140625 26.414062 -55 24.5 -52.71875 C 22.582031 -50.4375 21 -47.222656 19.75 -43.078125 C 18.40625 -39.140625 17.734375 -34.320312 17.734375 -28.625 C 17.734375 -22.914062 18.691406 -18.117188 20.609375 -14.234375 C 22.523438 -10.347656 25.296875 -8.40625 28.921875 -8.40625 C 31.003906 -9.226562 32.796875 -10.960938 34.296875 -13.609375 C 35.796875 -16.253906 36.957031 -19.519531 37.78125 -23.40625 C 38.613281 -27.289062 39.03125 -31.3125 39.03125 -35.46875 Z M 39.03125 -37.015625 "/></g></g></g><g fill="#ffbd59" fill-opacity="1"><g transform="translate(579.555399, 337.89969)"><g><path d="M 41.21875 -3.890625 C 41.007812 -4.710938 40.828125 -6.316406 40.671875 -8.703125 C 40.515625 -11.085938 40.4375 -14.253906 40.4375 -18.203125 L 40.4375 -25.203125 C 40.4375 -31.628906 40.28125 -37.40625 39.96875 -42.53125 C 39.65625 -47.664062 39.140625 -52.050781 38.421875 -55.6875 C 37.066406 -63.25 34.054688 -67.03125 29.390625 -67.03125 C 27.523438 -67.03125 25.789062 -66.203125 24.1875 -64.546875 C 22.582031 -62.890625 21.3125 -60.660156 20.375 -57.859375 L 20.375 -51.484375 L 20.21875 -27.84375 C 20.21875 -24.101562 20.296875 -20.367188 20.453125 -16.640625 C 20.609375 -12.910156 20.789062 -9.125 21 -5.28125 C 20.269531 -3.101562 18.347656 -2.015625 15.234375 -2.015625 C 13.890625 -2.015625 12.59375 -2.273438 11.34375 -2.796875 C 10.101562 -3.316406 9.222656 -3.992188 8.703125 -4.828125 C 8.503906 -8.867188 8.328125 -12.804688 8.171875 -16.640625 C 8.015625 -20.472656 7.9375 -24.15625 7.9375 -27.6875 L 8.09375 -50.546875 C 8.09375 -54.691406 8.039062 -58.550781 7.9375 -62.125 C 7.832031 -65.707031 7.675781 -69.109375 7.46875 -72.328125 C 7.46875 -73.460938 8.007812 -74.367188 9.09375 -75.046875 C 10.1875 -75.722656 11.507812 -76.0625 13.0625 -76.0625 C 15.238281 -76.0625 16.765625 -75.722656 17.640625 -75.046875 C 18.523438 -74.367188 19.28125 -72.992188 19.90625 -70.921875 C 23.539062 -72.992188 27.015625 -74.03125 30.328125 -74.03125 C 37.898438 -74.03125 43.34375 -71.285156 46.65625 -65.796875 C 53.707031 -70.148438 60.085938 -72.328125 65.796875 -72.328125 C 74.085938 -72.328125 80.019531 -69.316406 83.59375 -63.296875 C 87.175781 -57.285156 88.96875 -48.785156 88.96875 -37.796875 C 88.96875 -30.742188 88.367188 -23.585938 87.171875 -16.328125 C 85.984375 -9.066406 84.300781 -2.328125 82.125 3.890625 C 81.394531 6.066406 79.164062 7.15625 75.4375 7.15625 C 73.769531 7.15625 72.414062 6.84375 71.375 6.21875 C 70.34375 5.59375 69.828125 4.660156 69.828125 3.421875 C 71.285156 -0.515625 72.53125 -4.921875 73.5625 -9.796875 C 74.601562 -14.671875 75.429688 -19.671875 76.046875 -24.796875 C 76.671875 -29.929688 76.984375 -34.78125 76.984375 -39.34375 C 76.984375 -44.320312 76.515625 -48.832031 75.578125 -52.875 C 74.648438 -56.925781 73.253906 -60.140625 71.390625 -62.515625 C 69.523438 -64.898438 67.191406 -66.09375 64.390625 -66.09375 C 62.210938 -66.09375 60.0625 -65.5 57.9375 -64.3125 C 55.8125 -63.125 53.242188 -61.023438 50.234375 -58.015625 C 51.484375 -53.453125 52.363281 -48.394531 52.875 -42.84375 C 53.394531 -37.300781 53.65625 -30.742188 53.65625 -23.171875 L 53.5 -4.359375 C 52.769531 -2.179688 50.851562 -1.09375 47.75 -1.09375 C 46.394531 -1.09375 45.097656 -1.347656 43.859375 -1.859375 C 42.617188 -2.378906 41.738281 -3.054688 41.21875 -3.890625 Z M 41.21875 -3.890625 "/></g></g></g><g fill="#ffbd59" fill-opacity="1"><g transform="translate(678.157425, 337.89969)"><g><path d="M 49.140625 -62.21875 C 49.140625 -59.625 47.816406 -57.363281 45.171875 -55.4375 C 42.535156 -53.519531 39.195312 -52.097656 35.15625 -51.171875 C 33.082031 -50.753906 31.210938 -50.441406 29.546875 -50.234375 C 27.890625 -50.023438 26.441406 -49.921875 25.203125 -49.921875 C 21.984375 -49.921875 18.816406 -50.078125 15.703125 -50.390625 C 15.703125 -47.179688 16.117188 -43.472656 16.953125 -39.265625 C 17.785156 -35.066406 18.953125 -30.894531 20.453125 -26.75 C 21.953125 -22.601562 23.6875 -18.867188 25.65625 -15.546875 C 28.664062 -10.367188 32.140625 -7.414062 36.078125 -6.6875 C 38.046875 -7.101562 39.707031 -8.765625 41.0625 -11.671875 C 42.40625 -13.953125 43.695312 -15.582031 44.9375 -16.5625 C 46.1875 -17.550781 47.847656 -18.046875 49.921875 -18.046875 C 53.453125 -18.046875 55.21875 -17.007812 55.21875 -14.9375 C 55.21875 -14.414062 55.164062 -14.101562 55.0625 -14 C 52.257812 -9.332031 49.484375 -5.859375 46.734375 -3.578125 C 43.984375 -1.296875 40.640625 -0.15625 36.703125 -0.15625 C 33.492188 -0.15625 30.28125 -0.984375 27.0625 -2.640625 C 23.84375 -4.296875 21.09375 -6.421875 18.8125 -9.015625 C 15.914062 -12.546875 13.300781 -16.671875 10.96875 -21.390625 C 8.632812 -26.109375 6.765625 -31.054688 5.359375 -36.234375 C 3.960938 -41.421875 3.265625 -46.296875 3.265625 -50.859375 C 3.265625 -58.734375 5.078125 -64.769531 8.703125 -68.96875 C 12.335938 -73.175781 17.265625 -75.640625 23.484375 -76.359375 L 27.375 -76.671875 C 31.207031 -76.671875 34.78125 -76.019531 38.09375 -74.71875 C 41.414062 -73.425781 44.113281 -71.691406 46.1875 -69.515625 C 48.15625 -67.234375 49.140625 -64.800781 49.140625 -62.21875 Z M 19.75 -64.859375 C 18.507812 -62.890625 17.578125 -59.984375 16.953125 -56.140625 C 18.398438 -55.835938 20.734375 -55.6875 23.953125 -55.6875 C 27.578125 -55.6875 30.503906 -56.203125 32.734375 -57.234375 C 34.960938 -58.273438 36.078125 -59.988281 36.078125 -62.375 C 35.765625 -64.851562 34.804688 -66.765625 33.203125 -68.109375 C 31.597656 -69.460938 29.601562 -70.140625 27.21875 -70.140625 C 24.207031 -70.140625 21.71875 -68.378906 19.75 -64.859375 Z M 19.75 -64.859375 "/></g></g></g></svg>